<?xml version="1.0" encoding="UTF-8"?><svg id="a" xmlns="http://www.w3.org/2000/svg" xmlns:xlink="http://www.w3.org/1999/xlink" viewBox="0 0 576 311"><defs><style>.e,.f,.g{fill:none;}.h{fill:#f7f6f2;}.i{fill:#f2f2f2;}.j{fill:#e87b36;}.k{fill:#333;}.f{stroke:#e0e0e0;stroke-width:.5px;}.g{stroke:#333;stroke-width:3px;}.l{clip-path:url(#c);}.m{clip-path:url(#b);}.n{clip-path:url(#d);}</style><clipPath id="b"><rect class="e" width="576" height="64"/></clipPath><clipPath id="c"><rect class="e" y="64" width="576" height="64"/></clipPath><clipPath id="d"><rect class="e" y="128" width="576" height="64"/></clipPath></defs><rect class="h" width="576" height="192" rx="10" ry="10"/><g class="m"><g><path class="k" d="M34.57,19h-5.08l-11.52,28h4.84l2.6-6.56h13.2l2.64,6.56h4.8l-11.48-28Zm-7.48,17.16l4.92-12.32,4.92,12.32h-9.84Z"/><path class="f" d="M.25,10C.25,4.62,4.62,.25,10,.25H63.75V63.75H.25V10Z"/><path class="k" d="M86.05,47h11.92c6.16,0,9.4-3.16,9.4-8.24,0-3-1.56-5.36-4.36-6.68,2.44-1.16,3.68-3.16,3.68-5.64,0-4.56-3.2-7.44-8.76-7.44h-11.88v28Zm4.52-16.52v-7.56h6.88c3.12,0,4.64,1.4,4.64,3.76s-1.72,3.8-4.64,3.8h-6.88Zm0,12.6v-8.84h7c3.24,0,5.2,1.68,5.2,4.36s-1.76,4.48-5.2,4.48h-7Z"/><rect class="f" x="64.25" y=".25" width="63.5" height="63.5"/><path class="k" d="M161.02,47.48c6.08,0,10.92-3.16,12.64-7.84l-3.8-2.2c-1.28,3.44-4.68,5.76-8.84,5.76-5.48,0-9.6-4.24-9.6-10.24s4.12-10.16,9.6-10.16c4.2,0,7.6,2.32,8.84,5.76l3.8-2.2c-1.68-4.68-6.56-7.84-12.64-7.84-8.12,0-14.2,6-14.2,14.44s6.04,14.52,14.2,14.52Z"/><rect class="f" x="128.25" y=".25" width="63.5" height="63.5"/><path class="k" d="M212.82,47h9.64c9.12,0,14.52-5.24,14.52-14.04s-5.36-13.96-14.52-13.96h-9.64v28Zm4.52-4.04V23.04h5.2c6.2,0,9.88,3.6,9.88,9.92s-3.68,10-9.88,10h-5.2Z"/><rect class="f" x="192.25" y=".25" width="63.5" height="63.5"/><path class="k" d="M279.83,47h4.52v-11.72h13.32v-4.04h-13.32v-8.2h14.08v-4.04h-18.6v28Z"/><rect class="f" x="256.25" y=".25" width="63.5" height="63.5"/><path class="k" d="M349.04,33.28v4h12.12c-1.04,3.64-4.44,5.92-8.72,5.92-5.76,0-9.8-4.24-9.8-10.24s4.12-10.16,9.6-10.16c4.2,0,7.64,2.32,8.84,5.76l3.8-2.2c-1.68-4.68-6.56-7.84-12.64-7.84-8.12,0-14.2,6-14.2,14.44s6.08,14.52,14.36,14.52c3.6,0,6.64-1.4,8.76-3.8v3.32h4v-13.72h-16.12Z"/><rect class="f" x="320.25" y=".25" width="63.5" height="63.5"/><path class="k" d="M404.86,47h4.52v-11.88h13.2v11.88h4.56V19h-4.56v11.84h-13.2v-11.84h-4.52v28Z"/><rect class="f" x="384.25" y=".25" width="63.5" height="63.5"/><path class="k" d="M477.72,47h4.52V19h-4.52v28Z"/><rect class="f" x="448.25" y=".25" width="63.5" height="63.5"/><path class="k" d="M538.92,37.52l-4.6,.76v.88c0,5.04,3.4,8.32,8.44,8.32,5.32,0,8.56-3.4,8.56-8.68V19h-4.52v19.84c0,2.72-1.52,4.52-4.12,4.52-2.32,0-3.76-1.68-3.76-4.2v-1.64Z"/><path class="f" d="M512.25,.25h53.75c5.39,0,9.75,4.37,9.75,9.75V63.75h-63.5V.25Z"/></g></g><rect class="h" x="385.5" y="248.5" width="189" height="61" rx="8.5" ry="8.5"/><path class="k" d="M427.31,276.49c0,3.91-1.67,6.13-5,6.68l5.27,11.33h-4.43l-5.2-11.19h-8.77v11.19h-4v-28.01h15.33c4.53,0,6.8,2.27,6.8,6.82v3.18Zm-18.12,2.81h11.11c1.07,0,1.84-.23,2.3-.7,.47-.47,.7-1.24,.7-2.3v-2.79c0-1.07-.23-1.84-.7-2.3-.47-.47-1.24-.7-2.3-.7h-11.11v8.81Z"/><path class="k" d="M422.31,283.17l-.05-.3-.39,.06,.17,.36,.27-.13Zm5.27,11.33v.3h.47l-.2-.43-.27,.13Zm-4.43,0l-.27,.13,.08,.17h.19v-.3Zm-5.2-11.19l.27-.13-.08-.17h-.19v.3Zm-8.77,0v-.3h-.3v.3h.3Zm0,11.19v.3h.3v-.3h-.3Zm-4,0h-.3v.3h.3v-.3Zm0-28.01v-.3h-.3v.3h.3Zm4,12.81h-.3v.3h.3v-.3Zm0-8.81v-.3h-.3v.3h.3Zm17.83,6c0,1.91-.41,3.38-1.19,4.42-.78,1.04-1.95,1.7-3.56,1.96l.1,.59c1.73-.28,3.05-1.01,3.94-2.2,.88-1.18,1.31-2.79,1.31-4.78h-.6Zm-4.97,6.81l5.27,11.33,.54-.25-5.27-11.33-.54,.25Zm5.55,10.9h-4.43v.6h4.43v-.6Zm-4.16,.17l-5.2-11.19-.54,.25,5.2,11.19,.54-.25Zm-5.47-11.36h-8.77v.6h8.77v-.6Zm-9.07,.3v11.19h.6v-11.19h-.6Zm.3,10.89h-4v.6h4v-.6Zm-3.7,.3v-28.01h-.6v28.01h.6Zm-.3-27.71h15.33v-.6h-15.33v.6Zm15.33,0c2.22,0,3.83,.56,4.89,1.62s1.61,2.67,1.61,4.9h.6c0-2.32-.58-4.11-1.79-5.32-1.21-1.21-3-1.79-5.31-1.79v.6Zm6.5,6.52v3.18h.6v-3.18h-.6Zm-17.83,6.3h11.11v-.6h-11.11v.6Zm11.11,0c1.1,0,1.97-.24,2.52-.79l-.42-.42c-.39,.39-1.06,.62-2.09,.62v.6Zm2.52-.79c.55-.55,.79-1.42,.79-2.52h-.6c0,1.04-.23,1.71-.62,2.09l.42,.42Zm.79-2.52v-2.79h-.6v2.79h.6Zm0-2.79c0-1.1-.24-1.97-.79-2.52l-.42,.42c.39,.39,.62,1.06,.62,2.09h.6Zm-.79-2.52c-.55-.55-1.42-.79-2.52-.79v.6c1.04,0,1.71,.23,2.09,.62l.42-.42Zm-2.52-.79h-11.11v.6h11.11v-.6Zm-11.41,.3v8.81h.6v-8.81h-.6Z"/><path class="f" d="M384.25,257c0-5.38,4.36-9.75,9.75-9.75h53.75v63.5h-53.75c-5.39,0-9.75-4.36-9.75-9.75v-44Z"/><path class="k" d="M490.21,286.2c-.28-1.76-.72-3.48-2.72-4.64,2.4-1.52,3.44-3.88,3.44-6.76,0-5.24-3.84-8.8-9.68-8.8h-11.12v28h4.52v-10.4h7.24c2.92,0,3.56,1.08,3.88,2.88l1.2,7.52h4.4l-1.16-7.8Zm-8.92-6.6h-6.64v-9.56h6.64c3.16,0,5.04,1.88,5.04,4.76s-1.88,4.8-5.04,4.8Z"/><rect class="f" x="448.25" y="247.25" width="63.5" height="63.5"/><path class="k" d="M534.3,294v-29.09h10.37c2.25,0,4.12,.39,5.61,1.17,1.5,.78,2.61,1.85,3.35,3.22,.74,1.36,1.11,2.94,1.11,4.73s-.37,3.35-1.12,4.7c-.74,1.35-1.86,2.39-3.35,3.14-1.49,.75-3.36,1.12-5.61,1.12h-7.86v-3.78h7.46c1.42,0,2.58-.2,3.47-.61,.9-.41,1.56-1,1.97-1.77,.42-.78,.62-1.71,.62-2.8s-.21-2.05-.64-2.86c-.42-.8-1.08-1.42-1.98-1.85-.89-.44-2.06-.65-3.51-.65h-5.51v25.33h-4.39Zm14.36-13.12l7.19,13.12h-5l-7.05-13.12h4.86Z"/><path class="f" d="M512.25,247.25h53.75c5.39,0,9.75,4.37,9.75,9.75v44c0,5.39-4.36,9.75-9.75,9.75h-53.75v-63.5Z"/><rect class="g" x="385.5" y="248.5" width="189" height="61" rx="8.5" ry="8.5"/><g class="l"><g><path class="k" d="M22.26,111h4.52v-9.04l3.52-3.48,9.2,12.52h5.4l-11.28-15.92,10.76-12.08h-5.48l-12.12,13.32v-13.32h-4.52v28Z"/><path class="f" d="M.25,64.25H63.75v63.5H.25v-63.5Z"/><path class="k" d="M88.04,111h18.96v-4.04h-14.44v-23.96h-4.52v28Z"/><rect class="f" x="64.25" y="64.25" width="63.5" height="63.5"/><path class="k" d="M169.33,83l-9.32,21.92-9.32-21.92h-5.6v28h4.28v-20l8.64,20h3.96l8.68-20.12v20.12h4.28v-28h-5.6Z"/><rect class="f" x="128.25" y="64.25" width="63.5" height="63.5"/><path class="k" d="M231.17,83v20.2l-14.6-20.2h-4.28v28h4.52l.04-20.24,14.56,20.24h4.28v-28h-4.52Z"/><rect class="f" x="192.25" y="64.25" width="63.5" height="63.5"/><path class="k" d="M288.01,111.48c8.12,0,14.32-6.04,14.32-14.52s-6.24-14.44-14.32-14.44-14.32,6-14.32,14.44,6.2,14.52,14.32,14.52Zm0-4.28c-5.4,0-9.72-4.24-9.72-10.24s4.32-10.16,9.72-10.16,9.72,4.2,9.72,10.16-4.28,10.24-9.72,10.24Z"/><rect class="f" x="256.25" y="64.25" width="63.5" height="63.5"/><path class="k" d="M342.73,111h4.52v-9.6h6.36c6,0,9.92-3.6,9.92-9.2s-3.92-9.2-9.92-9.2h-10.88v28Zm4.52-13.6v-10.36h6.4c3.32,0,5.28,1.96,5.28,5.16s-1.96,5.2-5.28,5.2h-6.4Z"/><rect class="f" x="320.25" y="64.25" width="63.5" height="63.5"/><path class="k" d="M427.55,114.4l2.92-2.96-4.24-4.24c2.44-2.52,3.92-6.08,3.92-10.24,0-8.44-6.08-14.44-14.32-14.44s-14.32,6-14.32,14.44,6.08,14.52,14.32,14.52c2.6,0,5-.64,7.04-1.76l4.68,4.68Zm-11.72-7.2c-5.56,0-9.72-4.24-9.72-10.24s4.16-10.16,9.72-10.16,9.72,4.2,9.72,10.16c0,2.88-.96,5.28-2.56,7l-6.04-6-2.92,2.92,5.44,5.44c-1.08,.52-2.32,.88-3.64,.88Z"/><rect class="f" x="384.25" y="64.25" width="63.5" height="63.5"/><rect class="j" x="448.25" y="64.25" width="63.5" height="63.5"/><path class="i" d="M490.21,103.2c-.28-1.76-.72-3.48-2.72-4.64,2.4-1.52,3.44-3.88,3.44-6.76,0-5.24-3.84-8.8-9.68-8.8h-11.12v28h4.52v-10.4h7.24c2.92,0,3.56,1.08,3.88,2.88l1.2,7.52h4.4l-1.16-7.8Zm-8.92-6.6h-6.64v-9.56h6.64c3.16,0,5.04,1.88,5.04,4.76s-1.88,4.8-5.04,4.8Z"/><rect class="f" x="448.25" y="64.25" width="63.5" height="63.5"/><path class="k" d="M544.55,111.48c5.48,0,9.8-3.2,9.8-8.2,0-4-2.76-6.16-7.44-7.6l-3.76-1.12c-2.08-.6-4.24-1.6-4.24-4s1.96-3.88,4.72-3.88,5.12,1.44,5.96,4.04l3.84-2.08c-1.32-3.76-5.32-6.12-9.84-6.12-5.28,0-9.32,3.16-9.32,8.12,0,3.88,2.44,6.12,6.96,7.52l4,1.24c2.4,.68,4.48,1.64,4.48,3.92,0,2.56-2.24,4-5.2,4-3.28,0-6.08-1.84-7.04-5.12l-3.8,1.96c1.44,4.52,5.92,7.32,10.88,7.32Z"/><rect class="f" x="512.25" y="64.25" width="63.5" height="63.5"/></g></g><g class="n"><g><path class="k" d="M29.75,175h4.52v-23.96h8.32v-4.04H21.39v4.04h8.36v23.96Z"/><path class="f" d="M.25,128.25H63.75v63.5H10c-5.38,0-9.75-4.37-9.75-9.75v-53.75Z"/><path class="k" d="M95.97,175.48c6.48,0,10.76-4.52,10.76-11.08v-17.36l-4.52-.04v17.36c0,4.04-2.52,6.84-6.16,6.84s-6.28-2.8-6.28-6.84v-17.36l-4.52-.04v17.36c0,6.64,4.24,11.16,10.72,11.16Z"/><rect class="f" x="64.25" y="128.25" width="63.5" height="63.5"/><path class="k" d="M169.01,147l-9,22.6-9.04-22.6h-4.8l11.44,28h4.8l11.44-28h-4.84Z"/><rect class="f" x="128.25" y="128.25" width="63.5" height="63.5"/><path class="k" d="M240.33,147l-6.6,22.24-7.32-22.24h-4.8l-7.32,22.2-6.68-22.2h-4.96l8.84,28h5.2l7.32-21.84,7.28,21.84h5.2l8.84-28h-5Z"/><rect class="f" x="192.25" y="128.25" width="63.5" height="63.5"/><path class="k" d="M301.01,147h-5.12l-7.72,10.68-7.8-10.68h-5.16l10.08,13.88-10.32,14.12h5.12l7.76-10.44,7.64,10.44h5.12l-9.84-13.64,10.24-14.36Z"/><rect class="f" x="256.25" y="128.25" width="63.5" height="63.5"/><path class="k" d="M360.25,147l-8.24,14.12-8.28-14.12h-4.88l10.92,18.12v9.88h4.56v-9.88l10.84-18.12h-4.92Z"/><rect class="f" x="320.25" y="128.25" width="63.5" height="63.5"/><path class="k" d="M411.26,170.84l15.72-20.76v-3.08h-21.6v4.16h15.4l-15.92,20.76v3.08h22.28v-4.16h-15.88Z"/><rect class="f" x="384.25" y="128.25" width="63.5" height="63.5"/><rect class="f" x="448.25" y="128.25" width="63.5" height="63.5"/><path class="k" d="M543.3,175h4.52v-28h-3.92c-1.8,1.36-4,2.12-6.48,2.12v3.84c1.8,0,3.92-.12,5.88-.52v22.56Z"/><path class="f" d="M512.25,128.25h63.5v53.75c0,5.38-4.36,9.75-9.75,9.75h-53.75v-63.5Z"/></g></g><g><line class="g" x1="480" y1="248.5" x2="480" y2="111.2"/><polygon class="k" points="492.27 121.14 490.07 123.18 480 112.35 469.93 123.18 467.73 121.14 480 107.94 492.27 121.14"/></g></svg>